<?xml version="1.0" encoding="UTF-8" standalone="no"?>
<svg xmlns:dc="http://purl.org/dc/elements/1.1/" xmlns:cc="http://creativecommons.org/ns#" xmlns:rdf="http://www.w3.org/1999/02/22-rdf-syntax-ns#" xmlns:svg="http://www.w3.org/2000/svg" xmlns="http://www.w3.org/2000/svg" xmlns:xlink="http://www.w3.org/1999/xlink" xmlns:sodipodi="http://sodipodi.sourceforge.net/DTD/sodipodi-0.dtd" xmlns:inkscape="http://www.inkscape.org/namespaces/inkscape" id="svg2" viewBox="0 0 686.83928 752.53477" version="1.0" y="0" x="0" inkscape:version="0.48.5 r10040" sodipodi:docname="Truck white.svg">
  <sodipodi:namedview pagecolor="#ffffff" bordercolor="#666666" borderopacity="1" objecttolerance="10" gridtolerance="10" guidetolerance="10" inkscape:pageopacity="0" inkscape:pageshadow="2" inkscape:window-width="1440" inkscape:window-height="851" id="namedview79" showgrid="false" showguides="true" inkscape:guide-bbox="true" inkscape:zoom="0.31339204" inkscape:cx="51.748766" inkscape:cy="66.274205" inkscape:window-x="134" inkscape:window-y="0" inkscape:window-maximized="0" inkscape:current-layer="svg2" fit-margin-top="0" fit-margin-left="0" fit-margin-right="0" fit-margin-bottom="0"/>
  <defs id="defs3">
    <linearGradient id="linearGradient2645">
      <stop id="stop2647" stop-color="#8dabd6" offset="0"/>
      <stop id="stop2653" stop-color="#b1cef8" offset="1"/>
      <stop id="stop2649" stop-color="#8dabd6" stop-opacity="0" offset="1"/>
    </linearGradient>
    <linearGradient id="linearGradient2168">
      <stop id="stop2170" stop-color="#9c0002" offset="0"/>
      <stop id="stop2176" stop-color="#db1c1c" offset=".47826"/>
      <stop id="stop2178" stop-color="#c30200" offset="1"/>
      <stop id="stop2172" stop-color="#edbebe" offset="1"/>
      <stop id="stop2174" stop-color="#591702" stop-opacity="0" offset="1"/>
    </linearGradient>
    <linearGradient id="linearGradient2142">
      <stop id="stop2144" stop-color="#591702" offset="0"/>
      <stop id="stop2150" stop-color="#edbebe" offset="1"/>
      <stop id="stop2146" stop-color="#591702" stop-opacity="0" offset="1"/>
    </linearGradient>
    <linearGradient id="linearGradient2733" y2="180.42999" xlink:href="#linearGradient2168" gradientUnits="userSpaceOnUse" y1="155.82001" gradientTransform="matrix(0.89534,0,0,2.1824,-5.0134,-117.81)" x2="475.84" x1="440.70999"/>
    <linearGradient id="linearGradient2746" y2="167.24001" xlink:href="#linearGradient2168" gradientUnits="userSpaceOnUse" y1="148.36" gradientTransform="matrix(0.91951,0,0,2.125,-5.0134,-117.81)" x2="957.26001" x1="892.25"/>
    <linearGradient id="linearGradient2754" y2="312.97" xlink:href="#linearGradient2645" spreadMethod="reflect" gradientUnits="userSpaceOnUse" y1="314.54999" gradientTransform="matrix(0.98223,0,0,1.9893,-5.0134,-111.81)" x2="850.07001" x1="815.75"/>
    <linearGradient id="linearGradient2757" y2="412.12" xlink:href="#linearGradient2645" spreadMethod="reflect" gradientUnits="userSpaceOnUse" y1="406.19" gradientTransform="matrix(1.2006,0,0,1.6276,-5.0134,-111.81)" x2="421.63" x1="397.94"/>
    <linearGradient id="linearGradient2765" y2="187.17999" xlink:href="#linearGradient2142" gradientUnits="userSpaceOnUse" y1="136.16" gradientTransform="matrix(0.8037,0,0,2.4313,-5.0134,-117.81)" x2="553.06" x1="547.87"/>
    <linearGradient id="linearGradient2768" y2="537.73999" xlink:href="#linearGradient2142" gradientUnits="userSpaceOnUse" y1="322.98999" gradientTransform="matrix(2.141,0,0,0.90793,-0.82677,-117.81)" x2="304.59" x1="283.97"/>
    <linearGradient id="linearGradient2771" y2="693.72998" xlink:href="#linearGradient2168" gradientUnits="userSpaceOnUse" y1="826.63" gradientTransform="matrix(2.1701,0,0,0.9004,-7.8091,-123.4)" x2="207.39" x1="295.31"/>
    <linearGradient id="linearGradient2775" y2="150.39999" xlink:href="#linearGradient2168" gradientUnits="userSpaceOnUse" y1="411.39999" gradientTransform="matrix(1.4299,0,0,1.3665,-5.0134,-117.81)" x2="277.37" x1="702.12"/>
    <linearGradient id="linearGradient2778" y2="117.17" gradientUnits="userSpaceOnUse" y1="116.84" gradientTransform="matrix(1.3981,0,0,2.0456,-114.8,-142.9)" x2="356.29001" x1="423.20999">
      <stop id="stop2184" offset="0"/>
      <stop id="stop2186" stop-opacity="0" offset="1"/>
    </linearGradient>
    <linearGradient id="linearGradient2781" y2="172.83" xlink:href="#linearGradient2168" gradientUnits="userSpaceOnUse" y1="111.35" gradientTransform="matrix(1.2742,0,0,1.5335,-5.0134,-117.81)" x2="441.19" x1="435.98999"/>
    <linearGradient id="linearGradient2807" y2="524.57001" gradientUnits="userSpaceOnUse" y1="59.34" gradientTransform="scale(0.61023,1.6387)" x2="54.555" x1="760.59998">
      <stop id="stop2803" stop-color="#e9f3ff" offset="0"/>
      <stop id="stop2809" stop-color="#364978" offset="1"/>
      <stop id="stop2805" stop-color="#e9f3ff" stop-opacity="0" offset="1"/>
    </linearGradient>
    <linearGradient id="linearGradient2817" y2="230.42999" xlink:href="#linearGradient2645" gradientUnits="userSpaceOnUse" y1="230.42999" gradientTransform="scale(0.90586,1.1039)" x2="777.47998" x1="392.89001"/>
  </defs>
  <rect style="fill:#d45500;fill-opacity:1;fill-rule:nonzero;stroke:none" id="rect4292" width="686.83929" height="752.53479" x="-4.4893986e-05" y="0" rx="0" ry="0"/>
  <metadata id="metadata77">
    <rdf:RDF>
      <cc:Work>
        <dc:format>image/svg+xml</dc:format>
        <dc:type rdf:resource="http://purl.org/dc/dcmitype/StillImage"/>
        <cc:license rdf:resource="http://creativecommons.org/licenses/publicdomain/"/>
        <dc:publisher>
          <cc:Agent rdf:about="http://openclipart.org/">
            <dc:title>Openclipart</dc:title>
          </cc:Agent>
        </dc:publisher>
        <dc:title/>
        <dc:date>2005-10-11T20:07:45</dc:date>
        <dc:description>Truck </dc:description>
        <dc:source>https://openclipart.org/detail/182972/truck-by-Jarno-182972</dc:source>
        <dc:creator>
          <cc:Agent>
            <dc:title>Jarno</dc:title>
          </cc:Agent>
        </dc:creator>
        <dc:subject>
          <rdf:Bag>
            <rdf:li>truck</rdf:li>
            <rdf:li>upload2openclipart</rdf:li>
          </rdf:Bag>
        </dc:subject>
      </cc:Work>
      <cc:License rdf:about="http://creativecommons.org/licenses/publicdomain/">
        <cc:permits rdf:resource="http://creativecommons.org/ns#Reproduction"/>
        <cc:permits rdf:resource="http://creativecommons.org/ns#Distribution"/>
        <cc:permits rdf:resource="http://creativecommons.org/ns#DerivativeWorks"/>
      </cc:License>
    </rdf:RDF>
  </metadata>
  <g id="g3964" transform="translate(-204.73493,18.113464)">
    <path style="fill:none;stroke:#000000;stroke-width:10.20400047" inkscape:connector-curvature="0" d="m 784.22,178.95 c 0,0 13.38,-1.91 28.67,7.65 15.29,9.55 13.38,38.22 13.38,38.22 0,0 7.64,21.02 0,30.57 -7.65,9.56 -19.11,22.94 -19.11,22.94" id="path2216"/>
    <path transform="translate(0,-4.7968621e-6)" id="path2236" d="m 460.25,415.46875 -204.46875,3.8125 c 3.82,63.06 1.90625,103.1875 1.90625,103.1875 0,0 -0.0125,24.85 17.1875,32.5 1.84751,0.82112 4.44177,2.56122 7.46875,4.84375 0.82648,0.1328 1.37091,0.17837 3.78125,0.78125 1.75227,0.43828 3.87178,1.01434 6.3125,1.8125 2.44072,0.79816 5.21469,1.81062 8.21875,3.0625 3.00406,1.25188 6.24521,2.76309 9.6875,4.5625 3.44229,1.79941 7.08836,3.90297 10.84375,6.34375 3.75539,2.44078 7.61912,5.19902 11.5625,8.375 3.94338,3.17598 7.9625,6.745 11.96875,10.75 8.0125,8.0125 14.89734,15.39641 20.71875,21.96875 5.82141,6.57234 10.55687,12.33687 14.3125,17.09375 3.75563,4.75688 6.52859,8.52766 8.34375,11.09375 1.47197,2.08093 1.91699,2.77073 2.1875,3.1875 16.24061,11.68521 33.32661,22.85089 50.84375,32.25 24.68278,5.69755 47.53682,7.15124 79.6875,5.53125 1.7506,-0.25259 2.56593,-0.34597 6.4375,-1.03125 3.09977,-0.54867 6.70412,-1.22736 10.59375,-2.0625 3.88963,-0.83514 8.04594,-1.80781 12.21875,-2.9375 4.17281,-1.12969 8.36318,-2.41143 12.3125,-3.84375 3.94932,-1.43232 7.65586,-3.0382 10.875,-4.78125 1.60957,-0.87152 3.10548,-1.76803 4.4375,-2.71875 1.33202,-0.95072 2.50886,-1.93782 3.5,-2.96875 0.99114,-1.03093 1.78807,-2.1066 2.375,-3.21875 0.58693,-1.11215 0.97437,-2.27437 1.09375,-3.46875 0.23875,-2.38875 0.16496,-4.60213 -0.0625,-6.625 -0.22746,-2.02287 -0.60453,-3.85789 -0.96875,-5.5 -0.36422,-1.64211 -0.73473,-3.06604 -0.90625,-4.3125 -0.17152,-1.24646 -0.16313,-2.32031 0.1875,-3.15625 0.17531,-0.41797 0.44488,-0.7812 0.8125,-1.09375 0.36762,-0.31255 0.83639,-0.57599 1.4375,-0.78125 1.20223,-0.41053 2.92922,-0.59227 5.3125,-0.5625 2.38328,0.0298 5.41871,0.29631 9.3125,0.78125 3.89379,0.48494 8.64125,1.20125 14.375,2.15625 5.7325,0.95625 10.95041,1.59781 15.75,2.03125 4.79959,0.43344 9.18789,0.65875 13.21875,0.71875 4.03086,0.06 7.69869,-0.0547 11.125,-0.21875 3.42631,-0.16406 6.60781,-0.38625 9.59375,-0.625 2.98594,-0.23875 5.79025,-0.49219 8.5,-0.65625 2.70975,-0.16406 5.30852,-0.2475 7.90625,-0.1875 2.59773,0.06 5.19385,0.28531 7.84375,0.71875 2.6499,0.43344 5.3525,1.075 8.21875,2.03125 2.86625,0.955 6.29891,1.91787 10,2.875 3.70109,0.95713 7.6775,1.90273 11.6875,2.84375 8.02,1.88203 16.11875,3.72937 22.21875,5.4375 3.05,0.85406 5.62516,1.68553 7.40625,2.46875 0.89055,0.39161 1.58779,0.75452 2.0625,1.125 0.47471,0.37048 0.72563,0.74668 0.71875,1.09375 -0.007,0.34707 -0.28955,0.67862 -0.84375,1 -0.5542,0.32138 -1.39523,0.61284 -2.5625,0.90625 -0.68852,0.17307 -2.36125,0.30604 -3.28125,0.46875 63.10918,-6.24583 82.60319,-4.13275 91.0625,-19.65625 11.47,-21.02 5.75,-107.03125 5.75,-107.03125 L 460.25,415.46875 z" style="fill-rule:evenodd" inkscape:connector-curvature="0"/>
    <path style="font-size:medium;font-style:normal;font-variant:normal;font-weight:normal;font-stretch:normal;text-indent:0;text-align:start;text-decoration:none;line-height:normal;letter-spacing:normal;word-spacing:normal;text-transform:none;direction:ltr;block-progression:tb;writing-mode:lr-tb;text-anchor:start;baseline-shift:baseline;color:#000000;fill:#000000;fill-opacity:1;fill-rule:evenodd;stroke:none;stroke-width:2.79570007;marker:none;visibility:visible;display:inline;overflow:visible;enable-background:accumulate;font-family:Sans;-inkscape-font-specification:Sans" d="m 357.625,68.139658 -2.1875,2.65625 L 242.875,204.25 l -0.34375,0.4375 0.0312,0.53125 13,219.25 0.0625,1 0.96875,0.25 131.9063,37.15625 1.9375,0.5625 -0.15625,-2 -32.375,-389.860342 z" id="path4008" inkscape:connector-curvature="0" sodipodi:nodetypes="ccccccccccccc"/>
    <path style="font-size:medium;font-style:normal;font-variant:normal;font-weight:normal;font-stretch:normal;text-indent:0;text-align:start;text-decoration:none;line-height:normal;letter-spacing:normal;word-spacing:normal;text-transform:none;direction:ltr;block-progression:tb;writing-mode:lr-tb;text-anchor:start;baseline-shift:baseline;color:#000000;fill:#ffffff;fill-opacity:1;fill-rule:evenodd;stroke:none;stroke-width:2.79570007;marker:none;visibility:visible;display:inline;overflow:visible;enable-background:accumulate;font-family:Sans;-inkscape-font-specification:Sans" d="M 355.6783,75.233408 387.34375,459.65625 258.28125,423.28125 245.375,205.625 z" id="path1358" inkscape:connector-curvature="0" sodipodi:nodetypes="ccccc"/>
    <path id="path3957" d="m 705.46875,41.90625 -2.6875,0.1875 L 357.68206,68.125 355.90625,71 l 0.0937,0 31.5,394.375 0.125,1.59375 1.5625,-0.34375 68.75,-14.875 0.5625,-0.125 0.3125,-0.5 245.25,-406.90625 1.40625,-2.3125 z" style="font-size:medium;font-style:normal;font-variant:normal;font-weight:normal;font-stretch:normal;text-indent:0;text-align:start;text-decoration:none;line-height:normal;letter-spacing:normal;word-spacing:normal;text-transform:none;direction:ltr;block-progression:tb;writing-mode:lr-tb;text-anchor:start;baseline-shift:baseline;color:#000000;fill:#000000;fill-opacity:1;fill-rule:evenodd;stroke:none;stroke-width:2.79570007;marker:none;visibility:visible;display:inline;overflow:visible;enable-background:accumulate;font-family:Sans;-inkscape-font-specification:Sans" inkscape:connector-curvature="0" sodipodi:nodetypes="cccccccccccccc"/>
    <path id="path1360" d="M 700.3125,45.09375 456.75,449.15625 390.15625,463.53125 358.8125,70.8125 l 341.5,-25.71875 z" style="font-size:medium;font-style:normal;font-variant:normal;font-weight:normal;font-stretch:normal;text-indent:0;text-align:start;text-decoration:none;line-height:normal;letter-spacing:normal;word-spacing:normal;text-transform:none;direction:ltr;block-progression:tb;writing-mode:lr-tb;text-anchor:start;baseline-shift:baseline;color:#000000;fill:#ffffff;fill-opacity:1;fill-rule:evenodd;stroke:none;stroke-width:2.79570007;marker:none;visibility:visible;display:inline;overflow:visible;enable-background:accumulate;font-family:Sans;-inkscape-font-specification:Sans" inkscape:connector-curvature="0"/>
    <path style="font-size:medium;font-style:normal;font-variant:normal;font-weight:normal;font-stretch:normal;text-indent:0;text-align:start;text-decoration:none;line-height:normal;letter-spacing:normal;word-spacing:normal;text-transform:none;direction:ltr;block-progression:tb;writing-mode:lr-tb;text-anchor:start;baseline-shift:baseline;color:#000000;fill:#000000;fill-opacity:1;fill-rule:evenodd;stroke:none;stroke-width:2.80970001;marker:none;visibility:visible;display:inline;overflow:visible;enable-background:accumulate;font-family:Sans;-inkscape-font-specification:Sans" d="m 710.46875,29.0625 -0.4375,0.03125 -337.9375,18.5625 -1.40625,0.09375 0.0937,1.40625 22.53125,410.625 0.0312,0.78125 0.6875,0.375 57.875,31.5625 2.375,1.3125 -0.3125,-2.71875 L 413.15625,156.125 745.875,95.03125 l 1.4375,-0.25 -0.34375,-1.4375 c 0,0 -5.52734,-24.182547 -13.1875,-39.34375 C 726.04,38.678294 710.84375,29.28125 710.84375,29.28125 l -0.375,-0.21875 z" id="path4014" inkscape:connector-curvature="0"/>
    <path style="font-size:medium;font-style:normal;font-variant:normal;font-weight:normal;font-stretch:normal;text-indent:0;text-align:start;text-decoration:none;line-height:normal;letter-spacing:normal;word-spacing:normal;text-transform:none;direction:ltr;block-progression:tb;writing-mode:lr-tb;text-anchor:start;baseline-shift:baseline;color:#000000;fill:#ffffff;fill-opacity:1;fill-rule:evenodd;stroke:none;stroke-width:2.80970001;marker:none;visibility:visible;display:inline;overflow:visible;enable-background:accumulate;font-family:Sans;-inkscape-font-specification:Sans" d="m 709.71875,31.9375 c 0.99733,0.63893 14.54844,9.461328 21.5625,23.34375 6.987,13.828864 12.064,35.042097 12.59375,37.28125 l -332.53125,61.03125 -1.3125,0.25 0.15625,1.3125 40.65625,333.5625 -54.78125,-29.875 L 373.625,50.40625 709.71875,31.9375 z" id="path1366" inkscape:connector-curvature="0"/>
    <path inkscape:connector-curvature="0" style="fill:#000000;fill-rule:evenodd" d="m 388.38,141.97 45.09,-30.78 c 0,0 -2.37,-7.7 -21.36,-28.218 -18.98,-20.52 -28.48,-23.086 -28.48,-23.086 0,0 -18.99,-15.39 -4.75,5.131 14.25,20.52 11.87,14.134 11.87,26.959 0,12.824 4.75,19.214 -2.37,29.474 -7.12,10.26 0,20.52 0,20.52 z" id="path2180"/>
    <path inkscape:connector-curvature="0" style="fill:#ffffff;fill-rule:evenodd;stroke:#000000;stroke-width:2.79570007;stroke-linejoin:round" d="m 407.46,463.4 52.03,33.45 c 0,0 3.71,5.57 16.72,5.57 13,0 353.02,-33.44 353.02,-33.44 0,0 -1.86,-144.93 -9.29,-156.08 -3.04,-9.12 -7.94,-20.43 -10.31,-20.77 l 0.51,-18.24 c 0,0 -2.36,-21.12 -6.92,-40.88 -9.29,-39.02 -35.18,-119.93 -52.03,-150.5 -174.51,7.884 -299.14,18.58 -315.86,24.16 -16.72,5.57 -35.3,22.29 -35.3,22.29 0,0 -5.57,0 -9.29,3.72 -3.72,3.72 3.72,161.64 3.72,161.64 0,0 -3.72,-5.57 1.85,3.72 5.58,9.29 9.29,63.17 9.29,96.62 0,33.44 1.86,68.74 1.86,68.74 z" id="path1364"/>
    <path inkscape:connector-curvature="0" style="fill:#000000;fill-opacity:1;fill-rule:evenodd;stroke:#000000;stroke-width:1.39789999px" d="m 413.96,468.96 46.45,22.3 c 0,0 -9.29,1.85 13,3.71 22.3,1.86 340.02,-35.3 340.02,-35.3 0,0 16.72,3.72 16.72,-7.43 0,-11.15 -3.72,-14.87 -3.72,-14.87 0,0 11.15,5.58 13.01,18.58 1.86,13.01 5.57,104.05 3.71,111.48 -1.85,7.44 -3.71,11.15 -13,13.01 -9.29,1.86 -312.15,40.88 -312.15,40.88 0,0 -9.29,1.85 -35.3,-1.86 -26.01,-3.72 -33.44,-14.87 -33.44,-14.87 0,0 3.71,-42.73 -3.72,-65.03 -7.43,-22.29 -3.71,-52.02 -26.01,-59.45 -22.3,-7.43 -22.3,1.86 -22.3,1.86 v -22.3 l 16.73,9.29 z" id="path1362"/>
    <path inkscape:connector-curvature="0" style="fill:#000000;fill-opacity:1;fill-rule:evenodd;stroke:#000000;stroke-width:2.78850007" d="m 448.33,205.14 9.24,111.48 c 9.24,5.57 62.85,-1.86 160.81,-9.29 173.75,-13.01 182.99,-18.58 182.99,-18.58 0,0 5.55,-16.72 -5.54,-52.02 -11.09,-35.3 -18.49,-65.03 -25.88,-68.75 -11.09,1.86 -64.69,1.86 -147.87,7.43 -107.21,14.87 -175.52,8.36 -173.75,29.73 z" id="path1368"/>
    <path inkscape:connector-curvature="0" style="fill:#ffffff;fill-rule:evenodd;stroke:#000000;stroke-width:2.79570007" d="m 426.04,207 -16.72,13.01 3.72,76.17 c 0,0 7.43,3.72 16.72,11.15 9.29,7.43 14.86,9.29 14.86,9.29 0,0 -1.86,-39.02 -5.57,-70.6 C 435.33,214.43 426.04,207 426.04,207 z" id="path1370"/>
    <path style="fill:none;stroke:#000000;stroke-width:12.02200031;stroke-linecap:round" inkscape:connector-curvature="0" d="m 446.86,313.43 c 0,0 -38.05,-12.02 -40.06,-38.06 -2,-26.04 4.01,-42.06 6.01,-52.07 2.01,-10.02 4.01,-10.02 24.04,-12.02 20.03,-2.01 -8.01,0 -8.01,0" id="path2643"/>
    <path style="font-size:medium;font-style:normal;font-variant:normal;font-weight:normal;font-stretch:normal;text-indent:0;text-align:start;text-decoration:none;line-height:normal;letter-spacing:normal;word-spacing:normal;text-transform:none;direction:ltr;block-progression:tb;writing-mode:lr-tb;text-anchor:start;baseline-shift:baseline;color:#000000;fill:#000000;fill-opacity:1;fill-rule:evenodd;stroke:none;stroke-width:4.33339977;marker:none;visibility:visible;display:inline;overflow:visible;enable-background:accumulate;font-family:Sans;-inkscape-font-specification:Sans" d="m 785.75,385.875 c 0.2321,0.28662 0.50949,0.61358 0.90625,1.40625 1.00729,2.01241 2.34073,5.95433 3.25,13.21875 1.67597,13.38972 0.31883,27.34203 0.0937,29.5625 -3.84758,0.93345 -39.70138,9.41728 -113.375,18.1875 -75.38216,8.97476 -159.67714,10.94226 -165.09375,11.0625 -0.0379,-0.6928 -0.003,-1.80845 -1.59375,-12.9375 -1.65795,-11.65945 -1.79834,-29.88217 -1.8125,-32.96875 3.34796,-0.20563 90.33182,-5.56435 159.625,-11.03125 68.27215,-5.38558 114.74435,-15.76137 118,-16.5 z" id="path1372" inkscape:connector-curvature="0"/>
    <path style="font-size:medium;font-style:normal;font-variant:normal;font-weight:normal;font-stretch:normal;text-indent:0;text-align:start;text-decoration:none;line-height:normal;letter-spacing:normal;word-spacing:normal;text-transform:none;direction:ltr;block-progression:tb;writing-mode:lr-tb;text-anchor:start;baseline-shift:baseline;color:#000000;fill:#ffffff;fill-opacity:1;fill-rule:evenodd;stroke:none;stroke-width:1.28989995px;marker:none;visibility:visible;display:inline;overflow:visible;enable-background:accumulate;font-family:Sans;-inkscape-font-specification:Sans" d="m 787.25,492.1875 -7.21875,17.5 c -1.28552,-0.16332 -47.44958,-5.93445 -118.96875,0.3125 -71.12402,6.21329 -122.86005,19.66724 -124.84375,20.1875 l -1.71875,-14.5 c 1.03431,-0.15642 83.31033,-12.58284 129.40625,-15.71875 46.07038,-3.14409 122.10787,-7.70745 123.34375,-7.78125 z" id="path1374" inkscape:connector-curvature="0"/>
    <path style="font-size:medium;font-style:normal;font-variant:normal;font-weight:normal;font-stretch:normal;text-indent:0;text-align:start;text-decoration:none;line-height:normal;letter-spacing:normal;word-spacing:normal;text-transform:none;direction:ltr;block-progression:tb;writing-mode:lr-tb;text-anchor:start;baseline-shift:baseline;color:#000000;fill:#ffffff;fill-opacity:1;fill-rule:evenodd;stroke:none;stroke-width:1.32239997px;marker:none;visibility:visible;display:inline;overflow:visible;enable-background:accumulate;font-family:Sans;-inkscape-font-specification:Sans" d="m 780.9375,542.125 -5.6875,16.0625 c -1.04219,0.23478 -45.36025,10.15089 -107.75,16.71875 -62.2829,6.55661 -116.87081,2.02506 -118.28125,1.90625 l -3.125,-14.09375 c 2.62353,0.36912 59.7446,8.24005 121.53125,1.75 l 0.0937,0 c 61.04219,-6.426 109.82246,-21.29527 113.21875,-22.34375 z" id="path1376" inkscape:connector-curvature="0"/>
    <path inkscape:connector-curvature="0" style="fill:#ffffff;fill-rule:evenodd;stroke:#000000;stroke-width:2.79570007" d="m 474.35,527 3.72,53.88 50.16,5.58 c 0,0 -5.57,-20.44 -13,-42.74 -7.44,-22.29 -7.44,-31.58 -16.73,-31.58 -9.29,0 -11.14,0 -18.58,5.57 -7.43,5.57 -5.57,9.29 -5.57,9.29 z" id="path1378"/>
    <path inkscape:connector-curvature="0" style="fill:#ffffff;fill-rule:evenodd;stroke:#000000;stroke-width:2.79570007" d="m 797.64,553.01 37.16,-7.43 c 0,0 0,-29.73 -3.71,-50.17 -3.72,-20.43 -3.72,-20.43 -9.29,-20.43 -5.58,0 -13.01,-1.86 -16.73,11.14 -3.71,13.01 -7.43,66.89 -7.43,66.89 z" id="path1380"/>
    <path inkscape:connector-curvature="0" style="fill:#000000;fill-opacity:1;fill-rule:evenodd" d="M 764.2,127.11 749.33,86.229 604.41,97.377 c 0,0 104.05,-1.858 117.05,-1.858 13.01,0 20.44,1.858 27.87,11.151 7.44,9.29 14.87,20.44 14.87,20.44 z" id="path2190"/>
    <path inkscape:connector-curvature="0" style="fill:#000000;fill-opacity:1;fill-rule:evenodd" d="m 448.34,324.05 c 0,0 11.15,20.44 11.15,50.17 0,29.73 9.29,81.75 7.43,94.76 -1.86,13 -1.86,26.01 -1.86,26.01 0,0 13.01,-16.72 11.15,-55.74 -1.86,-39.02 -3.72,-83.61 -11.15,-96.62 -7.43,-13 -16.72,-18.58 -16.72,-18.58 z" id="path2192"/>
    <path inkscape:connector-curvature="0" style="fill:#000000;fill-opacity:1;fill-rule:evenodd" d="m 396.77,140.5 25.98,-21.15 c 0,0 7.22,-2.56 12.77,-3.09 5.55,-0.53 7.67,21.67 7.23,36.64 -0.43,14.98 -0.34,35.5 -0.34,35.5 0,0 -2.13,-61.39 -11.56,-62.36 -9.42,-0.96 -34.08,14.46 -34.08,14.46 z" id="path2210"/>
    <path inkscape:connector-curvature="0" style="fill:#ffffff;fill-opacity:1;fill-rule:evenodd" d="m 446.48,497.13 c 0,0 3.72,7.43 20.44,7.43 16.72,0 44.59,-3.71 44.59,-3.71 0,0 -35.3,7.43 -39.02,11.14 -3.71,3.72 -3.71,57.6 -3.71,74.32 v 27.87 c 0,0 -3.72,-89.18 -7.44,-100.33 -3.71,-11.15 -14.86,-16.72 -14.86,-16.72 z" id="path2212"/>
    <path inkscape:connector-curvature="0" style="fill:#000000;fill-opacity:1;fill-rule:evenodd" d="m 520.51,394.9 c 0,0 179.63,-3.83 227.41,-13.38 47.77,-9.56 59.24,-13.38 63.06,-22.93 3.82,-9.56 -1.91,-51.6 -11.47,-55.42 -9.55,-3.82 3.82,17.2 1.91,38.22 -1.91,21.02 -5.73,36.31 -280.91,53.51 z" id="path2214"/>
    <path inkscape:connector-curvature="0" style="fill:#000000;fill-rule:evenodd;stroke:#000000;stroke-width:2.93549991" d="m 837.73,253.48 c 0,0 -15.29,9.56 -15.29,-1.91 0,-11.46 -11.46,-53.51 -9.55,-59.24 1.91,-5.73 5.73,-11.46 17.2,-5.73 11.46,5.73 13.37,26.75 13.37,38.22 0,11.46 0,24.84 -5.73,28.66 z" id="path2218"/>
    <path id="path2230" d="m 309.15625,464.78125 25.3125,10.84375 3.6875,79.90625 -25.25,-25.25 -3.75,-65.5 z" style="font-size:medium;font-style:normal;font-variant:normal;font-weight:normal;font-stretch:normal;text-indent:0;text-align:start;text-decoration:none;line-height:normal;letter-spacing:normal;word-spacing:normal;text-transform:none;direction:ltr;block-progression:tb;writing-mode:lr-tb;text-anchor:start;baseline-shift:baseline;color:#000000;fill:#ffffff;fill-opacity:1;fill-rule:evenodd;stroke:none;stroke-width:1.39789999px;marker:none;visibility:visible;display:inline;overflow:visible;enable-background:accumulate;font-family:Sans;-inkscape-font-specification:Sans" inkscape:connector-curvature="0"/>
    <path inkscape:connector-curvature="0" id="path2232" d="m 264.65625,422.84375 a 11.114111,11.114111 0 0 0 -3.6875,21.71875 l 133.75,43.9375 a 11.114111,11.114111 0 1 0 6.9375,-21.09375 l -133.75,-43.96875 a 11.114111,11.114111 0 0 0 -3.25,-0.59375 z" style="font-size:medium;font-style:normal;font-variant:normal;font-weight:normal;font-stretch:normal;text-indent:0;text-align:start;text-decoration:none;line-height:normal;letter-spacing:normal;word-spacing:normal;text-transform:none;direction:ltr;block-progression:tb;writing-mode:lr-tb;text-anchor:start;baseline-shift:baseline;color:#000000;fill:#000000;fill-opacity:1;stroke:none;stroke-width:22.22599983;marker:none;visibility:visible;display:inline;overflow:visible;enable-background:accumulate;font-family:Sans;-inkscape-font-specification:Sans"/>
    <path style="fill:none;stroke:#000000;stroke-width:1.39789999px" inkscape:connector-curvature="0" d="M 254.88,436.94 z" id="path2234"/>
    <path id="path3943" d="m 426.46875,505.1875 c 0.70623,-0.19929 1.33625,-0.14494 1.90625,0.0625 1.13999,0.41489 2.09332,1.53414 2.75,2.5625 -1.12144,-0.67608 -2.70523,-1.38056 -4.65625,-1.625 -0.51434,-0.0644 -1.12697,0.0501 -1.6875,0.0625 0.58708,-0.44577 1.19083,-0.92235 1.6875,-1.0625 z" style="font-size:medium;font-style:normal;font-variant:normal;font-weight:normal;font-stretch:normal;text-indent:0;text-align:start;text-decoration:none;line-height:normal;letter-spacing:normal;word-spacing:normal;text-transform:none;direction:ltr;block-progression:tb;writing-mode:lr-tb;text-anchor:start;baseline-shift:baseline;color:#000000;fill:#ffffff;fill-opacity:1;fill-rule:evenodd;stroke:none;stroke-width:1;marker:none;visibility:visible;display:inline;overflow:visible;enable-background:accumulate;font-family:Sans;-inkscape-font-specification:Sans" inkscape:connector-curvature="0"/>
    <path id="path2617" d="m 422.09375,507.65625 c -1.62654,2.01472 -3.34441,4.77312 -5.25,9.34375 -4.82163,11.57696 -7.67054,30.21525 -9.34375,46 -0.39707,3.74591 -0.54046,6.33651 -0.8125,9.625 -0.0113,-16.88244 -0.88407,-27.40848 -1.0625,-34.90625 -0.23791,-9.99702 0.65772,-14.53866 6.34375,-22.125 3.7341,-4.97772 7.15477,-7.10269 10.125,-7.9375 z" style="font-size:medium;font-style:normal;font-variant:normal;font-weight:normal;font-stretch:normal;text-indent:0;text-align:start;text-decoration:none;line-height:normal;letter-spacing:normal;word-spacing:normal;text-transform:none;direction:ltr;block-progression:tb;writing-mode:lr-tb;text-anchor:start;baseline-shift:baseline;color:#000000;fill:#ffffff;fill-opacity:1;fill-rule:evenodd;stroke:none;stroke-width:1;marker:none;visibility:visible;display:inline;overflow:visible;enable-background:accumulate;font-family:Sans;-inkscape-font-specification:Sans" inkscape:connector-curvature="0"/>
    <path id="path2621" d="m 338.3125,511.25 c 1.46696,5.67766 3.39934,13.7407 5.6875,25.1875 l 0.0625,0.1875 0.125,0.15625 c 7.57343,8.51949 12.32889,11.94067 15.375,13.25 L 341.5,554.5625 338.3125,511.25 z" style="font-size:medium;font-style:normal;font-variant:normal;font-weight:normal;font-stretch:normal;text-indent:0;text-align:start;text-decoration:none;line-height:normal;letter-spacing:normal;word-spacing:normal;text-transform:none;direction:ltr;block-progression:tb;writing-mode:lr-tb;text-anchor:start;baseline-shift:baseline;color:#000000;fill:#ffffff;fill-opacity:1;fill-rule:evenodd;stroke:none;stroke-width:1.39789999px;marker:none;visibility:visible;display:inline;overflow:visible;enable-background:accumulate;font-family:Sans;-inkscape-font-specification:Sans" inkscape:connector-curvature="0"/>
    <path id="path2623" d="m 427.96875,561.78125 c 0.66109,0.42481 1.47781,1.05221 2.40625,2.1875 2.04653,2.5025 4.39972,7.12378 5.34375,15.625 0.22823,2.04454 0.35684,3.41253 0.4375,4.40625 -0.11865,-0.095 -0.19619,-0.21299 -0.40625,-0.25 -0.35171,-0.062 -0.77867,0.13454 -0.96875,0.375 -0.19008,0.24046 -0.27922,0.50466 -0.375,0.84375 -0.38312,1.35637 -0.59375,4.0893 -0.59375,9.84375 0,5.68398 -0.60744,9.32059 -1.5,11.46875 -0.89256,2.14816 -1.94561,2.77723 -3.125,2.875 -1.17939,0.0978 -2.61405,-0.46964 -4,-1.25 -1.38595,-0.78036 -2.69059,-1.72029 -3.75,-2.25 -0.23927,-0.11933 -0.47751,-0.42974 -0.65625,-1.03125 -0.17874,-0.60151 -0.24977,-1.44802 -0.25,-2.4375 -4.5e-4,-1.97895 0.33877,-4.51496 0.8125,-7 0.70416,-3.69383 1.29886,-5.65796 1.75,-7.25 0.42064,1.33924 1.01044,2.99534 1.71875,4.53125 0.73717,1.5985 1.53571,3.0582 2.65625,3.84375 0.56027,0.39278 1.27209,0.59936 1.96875,0.40625 0.69666,-0.19311 1.31155,-0.73295 1.84375,-1.53125 2.03882,-3.06357 2.50802,-7.0818 1.78125,-12.65625 -0.68193,-5.23048 -2.51332,-12.04792 -5.09375,-20.75 z" style="font-size:medium;font-style:normal;font-variant:normal;font-weight:normal;font-stretch:normal;text-indent:0;text-align:start;text-decoration:none;line-height:normal;letter-spacing:normal;word-spacing:normal;text-transform:none;direction:ltr;block-progression:tb;writing-mode:lr-tb;text-anchor:start;baseline-shift:baseline;color:#000000;fill:#ffffff;fill-opacity:1;fill-rule:evenodd;stroke:none;stroke-width:1.39789999px;marker:none;visibility:visible;display:inline;overflow:visible;enable-background:accumulate;font-family:Sans;-inkscape-font-specification:Sans" inkscape:connector-curvature="0"/>
    <path id="path2627" d="m 284.9375,523.1875 c 0.11725,0.14083 0.2289,0.19757 0.34375,0.34375 2.68357,3.41568 4.60308,8.16884 1.6875,14 -1.48511,2.97022 -2.72829,4.54457 -3.53125,5.0625 -0.40148,0.25897 -0.62183,0.25355 -0.78125,0.1875 -0.15942,-0.0661 -0.37147,-0.26133 -0.53125,-0.6875 -0.31956,-0.85233 -0.39822,-2.42465 -0.125,-4.25 0.27322,-1.82535 0.86981,-3.92468 1.84375,-5.875 1.99491,-3.98484 2.09359,-6.65319 1.09375,-8.78125 z" style="font-size:medium;font-style:normal;font-variant:normal;font-weight:normal;font-stretch:normal;text-indent:0;text-align:start;text-decoration:none;line-height:normal;letter-spacing:normal;word-spacing:normal;text-transform:none;direction:ltr;block-progression:tb;writing-mode:lr-tb;text-anchor:start;baseline-shift:baseline;color:#000000;fill:#ffffff;fill-opacity:1;fill-rule:evenodd;stroke:none;stroke-width:1;marker:none;visibility:visible;display:inline;overflow:visible;enable-background:accumulate;font-family:Sans;-inkscape-font-specification:Sans" inkscape:connector-curvature="0"/>
    <rect style="fill:#000000;stroke:#000000;stroke-width:4.05380011;stroke-linecap:round;stroke-linejoin:round" x="389.57001" y="211.28" width="32.047001" height="78.114998" ry="24.462" rx="7.8280001" id="rect2633"/>
    <path style="font-size:medium;font-style:normal;font-variant:normal;font-weight:normal;font-stretch:normal;text-indent:0;text-align:start;text-decoration:none;line-height:normal;letter-spacing:normal;word-spacing:normal;text-transform:none;direction:ltr;block-progression:tb;writing-mode:lr-tb;text-anchor:start;baseline-shift:baseline;color:#000000;fill:#ffffff;fill-opacity:1;stroke:none;stroke-width:2.8499999;marker:none;visibility:visible;display:inline;overflow:visible;enable-background:accumulate;font-family:Sans;-inkscape-font-specification:Sans" d="M 736.59375,391.15625 575.125,457.5 l 1.09375,2.625 161.4375,-66.34375 -1.0625,-2.625 z" id="path2663" inkscape:connector-curvature="0"/>
    <path style="font-size:medium;font-style:normal;font-variant:normal;font-weight:normal;font-stretch:normal;text-indent:0;text-align:start;text-decoration:none;line-height:normal;letter-spacing:normal;word-spacing:normal;text-transform:none;direction:ltr;block-progression:tb;writing-mode:lr-tb;text-anchor:start;baseline-shift:baseline;color:#000000;fill:#ffffff;fill-opacity:1;fill-rule:nonzero;stroke:none;stroke-width:1.76420057;marker:none;visibility:visible;display:inline;overflow:visible;enable-background:accumulate;font-family:Sans;-inkscape-font-specification:Sans" d="m 650.9282,419.007 a 0.85419551,0.90932013 41.592449 0 0 -0.6911,0.93977 l 0.39597,14.02566 a 0.85419551,0.90932013 41.592449 0 0 0.8961,0.79538 l 17.21018,-1.56563 a 0.85419551,0.90932013 41.592449 0 0 0.84671,-0.95392 l -0.39597,-14.02566 a 0.85419551,0.90932013 41.592449 0 0 -0.8961,-0.79538 l -17.21018,1.56563 a 0.85419551,0.90932013 41.592449 0 0 -0.15561,0.0142 z" id="path4052" inkscape:connector-curvature="0"/>
    <path sodipodi:nodetypes="cccssc" inkscape:connector-curvature="0" style="fill:#ffffff;fill-opacity:1;fill-rule:evenodd" d="m 434,482.09 c 0,0 39.1155,17.1155 29.1155,15.1155 121.33671,6.75017 229.38586,-23.15852 353.538,-27.32675 0,0 -74.6535,14.21125 -204.6535,24.21125 -130,10 -142,10 -154,6 -12,-4 -24,-18 -24,-18 z" id="path2728"/>
    <path style="fill:#000000;fill-opacity:1;fill-rule:evenodd" inkscape:connector-curvature="0" d="m 486,376.09 c 0,0 -12,-30 -8,-40 4,-10 302,-32 302,-32 0,0 -270,28 -286,38 -16,10 -8,34 -8,34 z" id="path2787"/>
    <path style="fill:#000000;fill-opacity:1;fill-rule:evenodd" inkscape:connector-curvature="0" d="M 723.85,79.913 710,34.094 c 0,0 6.92,15.273 13.85,28.364 6.92,13.091 16.15,19.636 16.15,19.636 l -16.15,-2.181 z" id="path2789"/>
    <path style="font-size:medium;font-style:normal;font-variant:normal;font-weight:normal;font-stretch:normal;text-indent:0;text-align:start;text-decoration:none;line-height:normal;letter-spacing:normal;word-spacing:normal;text-transform:none;direction:ltr;block-progression:tb;writing-mode:lr-tb;text-anchor:start;baseline-shift:baseline;color:#000000;fill:#ffffff;fill-opacity:1;fill-rule:evenodd;stroke:none;stroke-width:2.79570007;marker:none;visibility:visible;display:inline;overflow:visible;enable-background:accumulate;font-family:Sans;-inkscape-font-specification:Sans" d="m 739.03125,516.3125 -1.375,25 -127.34375,18.5625 -1.90625,-29.5 130.625,-14.0625 z" id="path3826" inkscape:connector-curvature="0"/>
  </g>
</svg>
